<?xml version="1.0" standalone="no"?><!DOCTYPE svg PUBLIC "-//W3C//DTD SVG 1.1//EN" "http://www.w3.org/Graphics/SVG/1.1/DTD/svg11.dtd"><svg t="1744191618995" class="icon" viewBox="0 0 1024 1024" version="1.1" xmlns="http://www.w3.org/2000/svg" p-id="11552" xmlns:xlink="http://www.w3.org/1999/xlink" width="200" height="200"><path d="M512 78.912c-11.52 0-23.488 3.008-33.28 8.576L161.28 270.912C140.8 282.88 128 305.088 128 328.96v366.08c0 23.872 12.8 46.08 33.28 58.048l83.2 47.744c40.512 19.648 54.208 20.096 72.96 20.096 59.712 0 94.272-36.288 94.272-99.456V360.128a9.472 9.472 0 0 0-9.344-9.408h-39.68a9.6 9.6 0 0 0-9.856 9.408v361.344c0 28.16-28.992 55.936-75.52 32.448L189.888 704a11.072 11.072 0 0 1-4.736-8.96V328.96c0-3.84 1.728-7.232 4.736-8.96l317.44-183.04a9.216 9.216 0 0 1 9.344 0L834.112 320c3.008 1.728 4.736 5.12 4.736 8.96v366.08a11.136 11.136 0 0 1-4.736 8.96l-317.44 183.04c-2.56 1.728-6.784 1.728-9.792 0l-80.192-48.64c-3.456-1.28-6.848-1.728-8.96-0.448-22.656 12.8-26.88 15.36-47.808 21.76-5.12 1.728-13.248 4.736 3.008 13.696l105.792 62.72c10.24 5.952 21.312 8.96 33.28 8.96s23.04-3.008 33.28-8.96l317.44-183.04c20.48-11.968 33.28-34.176 33.28-58.048V328.96c0-23.872-12.8-46.08-33.28-58.048L545.28 87.488A67.776 67.776 0 0 0 512 78.912m85.312 262.4c-90.432 0-144.64 38.016-144.64 102.016 0 68.672 53.76 88.704 140.8 97.28 103.68 10.24 111.808 25.6 111.808 46.08 0 35.392-28.608 50.304-95.168 50.304-84.48 0-102.4-20.864-108.8-62.72a9.6 9.6 0 0 0-9.344-7.68h-40.96c-5.12 0-8.96 3.84-8.96 9.408 0 52.928 28.992 116.928 168.064 116.928 100.288 0 157.888-39.68 157.888-108.8 0-68.736-46.08-86.656-143.808-99.84-98.56-12.8-108.352-19.648-108.352-42.688 0-19.2 8.512-44.8 81.472-44.8 64 0 89.216 14.08 99.008 58.048a9.152 9.152 0 0 0 8.96 7.232h41.408a8.256 8.256 0 0 0 6.4-3.008c1.664-1.664 2.944-4.224 2.112-6.784-5.952-75.968-56.32-110.976-157.888-110.976z" fill="#cdcdcd" p-id="11553"></path></svg>